<svg xmlns="http://www.w3.org/2000/svg" viewBox="0 0 144 144">
  <rect width="144" height="144" rx="24" fill="#0c0f13"/>
  <rect x="25" y="27" width="32" height="8" rx="2" fill="#535e68"/>
  <rect x="87" y="27" width="32" height="8" rx="2" fill="#e2e8ed"/>
  <rect x="14" y="45" width="116" height="7" fill="#252c33"/>
  <rect x="14" y="56" width="18" height="8" rx="1" fill="#818e9a"/>
  <rect x="104" y="56" width="26" height="8" rx="1" fill="#c1cbd3"/>
  <rect x="25" y="70" width="32" height="8" rx="2" fill="#535e68"/>
  <rect x="87" y="70" width="32" height="8" rx="2" fill="#e2e8ed"/>
  <rect x="14" y="88" width="116" height="7" fill="#252c33"/>
  <rect x="14" y="99" width="18" height="8" rx="1" fill="#818e9a"/>
  <rect x="88" y="99" width="42" height="8" rx="1" fill="#c1cbd3"/>
  <path d="M19 124a7 7 0 1 0 7-7 7.6 7.6 0 0 0-5.2 2.1L19 121" fill="none" stroke="#535e68" stroke-width="2"/>
  <path d="M19 117v4h4" fill="none" stroke="#535e68" stroke-width="2"/>
  <rect x="34" y="120" width="10" height="7" rx="1" fill="#535e68"/>
</svg>
